HIERARCHY
ROOT Hips
{
 OFFSET 0.000000 0.000000 0.000000
 CHANNELS 6 Xposition Yposition Zposition Yrotation Xrotation Zrotation
 JOINT Chest
 {
  OFFSET 0.000000 9.585900 0.002600
  CHANNELS 3 Yrotation Xrotation Zrotation
  JOINT Chest2
  {
   OFFSET 0.000000 9.601200 -0.005300
   CHANNELS 3 Yrotation Xrotation Zrotation
   JOINT Chest3
   {
    OFFSET 0.000000 9.561800 0.000000
    CHANNELS 3 Yrotation Xrotation Zrotation
    JOINT Chest4
    {
     OFFSET 0.000000 9.552100 0.000000
     CHANNELS 3 Yrotation Xrotation Zrotation
     JOINT Neck
     {
      OFFSET 0.000000 14.453000 0.000000
      CHANNELS 3 Yrotation Xrotation Zrotation
      JOINT Head
      {
       OFFSET 0.000000 8.936500 -0.011300
       CHANNELS 3 Yrotation Xrotation Zrotation
       End Site
       {
        OFFSET 0.000000 17.073600 -0.006000
       }
      }
     }
     JOINT RightCollar
     {
      OFFSET -2.921100 9.558500 0.000000
      CHANNELS 3 Yrotation Xrotation Zrotation
      JOINT RightShoulder
      {
       OFFSET -13.519700 0.000000 0.000000
       CHANNELS 3 Yrotation Xrotation Zrotation
       JOINT RightElbow
       {
        OFFSET 0.000000 -29.696600 0.000000
        CHANNELS 3 Yrotation Xrotation Zrotation
        JOINT RightWrist
        {
         OFFSET 0.000000 -24.004700 0.000000
         CHANNELS 3 Yrotation Xrotation Zrotation
         End Site
         {
          OFFSET 0.000000 -17.728500 0.000000
         }
        }
       }
      }
     }
     JOINT LeftCollar
     {
      OFFSET 2.921100 9.558500 0.000000
      CHANNELS 3 Yrotation Xrotation Zrotation
      JOINT LeftShoulder
      {
       OFFSET 13.519700 0.000000 0.000000
       CHANNELS 3 Yrotation Xrotation Zrotation
       JOINT LeftElbow
       {
        OFFSET 0.000000 -29.696600 0.000000
        CHANNELS 3 Yrotation Xrotation Zrotation
        JOINT LeftWrist
        {
         OFFSET 0.000000 -24.004700 0.000000
         CHANNELS 3 Yrotation Xrotation Zrotation
         End Site
         {
          OFFSET 0.000000 -17.728500 0.000000
         }
        }
       }
      }
     }
    }
   }
  }
 }
 JOINT RightHip
 {
  OFFSET -7.771700 -0.012900 -0.001300
  CHANNELS 3 Yrotation Xrotation Zrotation
  JOINT RightKnee
  {
   OFFSET 0.000000 -40.869800 0.001200
   CHANNELS 3 Yrotation Xrotation Zrotation
   JOINT RightAnkle
   {
    OFFSET 0.000000 -39.717900 0.002100
    CHANNELS 3 Yrotation Xrotation Zrotation
    JOINT RightToe
    {
     OFFSET 0.000000 -4.965400 11.033500
     CHANNELS 3 Yrotation Xrotation Zrotation
     End Site
     {
      OFFSET 0.000000 -1.423100 5.872300
     }
    }
   }
  }
 }
 JOINT LeftHip
 {
  OFFSET 7.771700 -0.012900 -0.001300
  CHANNELS 3 Yrotation Xrotation Zrotation
  JOINT LeftKnee
  {
   OFFSET 0.000000 -40.869800 0.001200
   CHANNELS 3 Yrotation Xrotation Zrotation
   JOINT LeftAnkle
   {
    OFFSET 0.000000 -39.717900 0.002100
    CHANNELS 3 Yrotation Xrotation Zrotation
    JOINT LeftToe
    {
     OFFSET 0.000000 -4.965400 11.033500
     CHANNELS 3 Yrotation Xrotation Zrotation
     End Site
     {
      OFFSET 0.000000 -1.423100 5.872300
     }
    }
   }
  }
 }
}
MOTION
Frames: 16
Frame Time: 0.008333
0.000000 85.388000 0.000000 0.000000 -5.767877 0.000000 0.000000 11.653817 0.000000 0.000000 -5.885947 0.000000 0.000000 -0.000000 0.000000 0.000000 -0.000000 0.000000 0.000000 12.528835 0.000000 0.000000 0.711642 0.000000 0.000000 -0.000000 0.000000 0.000000 0.000000 -90.000000 0.000000 -2.309062 0.000000 0.000000 2.309062 0.000000 0.000000 -0.000000 0.000000 0.000000 -0.000000 90.000000 0.000000 -2.309062 0.000000 0.000000 2.309062 0.000000 0.000000 8.520406 0.000000 0.000000 1.905762 0.000000 -0.000000 -4.658285 0.000000 0.000000 -0.000000 0.000000 0.000000 8.520406 0.000000 0.000000 1.905762 0.000000 -0.000000 -4.658285 0.000000 0.000000 -0.000000 0.000000
-5.867961 55.215523 30.823315 178.276324 -28.206351 -11.333173 0.026604 10.123840 5.895294 0.008054 5.964865 2.057896 0.032762 7.503464 2.576246 0.023383 5.903021 2.054032 -1.104323 19.576359 -1.357159 -0.862327 -5.016989 -1.187924 -0.080887 2.086550 -2.548828 -13.551423 -4.619021 7.157436 26.596544 -72.775918 -10.141230 10.356665 -7.981345 -20.696956 -8.795548 2.482031 -3.340265 4.668103 0.524574 -1.235457 -70.301245 -75.321965 74.486392 11.087832 -13.600555 0.176034 -19.362520 -37.960148 8.946753 29.588710 83.868937 25.702238 0.639893 -16.030107 1.190786 -0.823310 2.093016 -0.374708 -18.421687 -49.252537 19.844970 171.383735 79.401472 167.105660 -1.256001 -16.420725 0.833707 -0.915176 -1.897859 -0.418748
-5.867823 55.215926 30.819101 178.279520 -28.199562 -11.338734 0.026659 10.112096 5.900785 0.006328 5.962042 2.057339 0.041738 7.452124 2.575301 0.036211 5.881332 2.049525 -1.367571 19.695435 -1.352656 -1.143625 -4.879644 -1.124172 -0.081088 2.104284 -2.540216 -13.651018 -4.528508 7.194368 26.256554 -72.803350 -9.776782 10.322511 -8.014370 -20.657415 -8.722176 2.414393 -3.320194 4.555256 0.633229 -1.169329 -70.208563 -75.342413 74.213869 11.083730 -13.654752 0.302572 -19.379111 -37.962768 8.947522 29.680507 83.870998 25.804748 0.631471 -16.037668 1.173956 -0.809970 2.092335 -0.368884 -18.441000 -49.260214 19.853470 171.364528 79.389771 167.086325 -1.249687 -16.418775 0.828734 -0.923755 -1.905216 -0.417474
-5.866988 55.215730 30.816261 178.264757 -28.185254 -11.341202 0.047232 10.082652 5.907965 0.011136 5.940053 2.057856 0.047608 7.424753 2.575942 0.051940 5.863426 2.047115 -1.626132 19.806651 -1.334703 -1.423458 -4.750220 -1.047143 -0.089155 2.117690 -2.528739 -13.719213 -4.450891 7.206750 25.809669 -72.839323 -9.341992 10.286757 -8.065233 -20.629179 -8.662944 2.347969 -3.300433 4.433328 0.735983 -1.105579 -70.141331 -75.356018 73.945975 11.075876 -13.681738 0.489509 -19.404088 -37.969377 8.976086 29.718006 83.867750 25.827630 0.634696 -16.049436 1.174168 -0.812732 2.101025 -0.372787 -18.454797 -49.274602 19.874541 171.389878 79.379723 167.109444 -1.230135 -16.424138 0.824897 -0.933631 -1.906857 -0.419521
-5.867443 55.215536 30.812886 178.259611 -28.173327 -11.340818 0.072185 10.052057 5.911355 0.039723 5.893098 2.055642 0.069354 7.373273 2.575337 0.028758 5.899015 2.057100 -1.878026 19.911087 -1.305186 -1.699241 -4.627552 -0.959330 -0.109964 2.127445 -2.517477 -13.790668 -4.374042 7.221761 25.447526 -72.876180 -8.992634 10.259098 -8.127456 -20.615646 -8.621932 2.287441 -3.281243 4.302428 0.824177 -1.049068 -70.086226 -75.354985 73.698337 11.058088 -13.748478 0.575698 -19.411894 -37.978026 8.981242 29.767648 83.867748 25.879613 0.632627 -16.056466 1.170469 -0.808409 2.103848 -0.374080 -18.463052 -49.286951 19.882348 171.404715 79.372396 167.122197 -1.220462 -16.430041 0.822912 -0.936904 -1.905507 -0.419415
-5.868208 55.215205 30.809698 178.257980 -28.163670 -11.340327 0.081415 10.035928 5.912404 0.066433 5.868157 2.053968 0.071740 7.362337 2.577208 0.020436 5.901843 2.061007 -2.085716 19.981258 -1.275537 -1.967862 -4.509000 -0.863752 -0.115021 2.116811 -2.515431 -13.924049 -4.289859 7.309766 25.505611 -72.895658 -9.001491 10.283929 -8.154184 -20.591833 -8.564471 2.201319 -3.267960 4.162580 0.896640 -1.002134 -70.044632 -75.333748 73.488291 11.035689 -13.800656 0.600736 -19.418927 -37.985005 8.979634 29.775147 83.869056 25.894485 0.635819 -16.058362 1.163194 -0.802583 2.100296 -0.372732 -18.473760 -49.298532 19.888217 171.400799 79.363764 167.115071 -1.215239 -16.429775 0.822109 -0.939862 -1.909791 -0.419997
-5.867446 55.213978 30.808839 178.246089 -28.147639 -11.344212 0.113265 10.003016 5.921903 0.082751 5.851653 2.055920 0.046107 7.376987 2.581787 0.100067 5.838283 2.050295 -2.333625 20.095778 -1.225386 -2.225796 -4.392210 -0.764226 -0.201054 2.174706 -2.494611 -13.982189 -4.243973 7.373729 25.586654 -72.921027 -9.089167 10.280443 -8.181526 -20.565164 -8.584451 2.165309 -3.253524 4.040470 0.970340 -0.965714 -70.148998 -75.288484 73.376208 11.009718 -13.820374 0.645250 -19.440140 -37.989934 8.994223 29.878049 83.852086 25.994762 0.653278 -16.069872 1.154855 -0.818084 2.111700 -0.376619 -18.480548 -49.316066 19.909230 171.409306 79.357062 167.123857 -1.211203 -16.438574 0.824216 -0.943204 -1.904973 -0.420559
-5.866285 55.212537 30.808509 178.225173 -28.137468 -11.345395 0.172646 9.959415 5.934239 0.080412 5.847671 2.059777 0.111725 7.326651 2.581983 0.090590 5.842451 2.057891 -2.573706 20.208633 -1.173706 -2.475365 -4.273231 -0.663525 -0.258925 2.188098 -2.482096 -14.043373 -4.160729 7.423589 25.737187 -72.935439 -9.246484 10.255044 -8.243876 -20.597581 -8.621680 2.133569 -3.248951 3.901655 1.016832 -0.926939 -70.254539 -75.222830 73.238906 10.975064 -13.825630 0.704551 -19.447763 -37.996477 9.008456 29.848135 83.846695 25.974759 0.663621 -16.062931 1.135666 -0.812821 2.108238 -0.372790 -18.479527 -49.326362 19.931762 171.452283 79.351843 167.166440 -1.204615 -16.453505 0.824620 -0.943814 -1.894956 -0.420197
-5.866634 55.210293 30.808969 178.216348 -28.126062 -11.341751 0.184296 9.942349 5.934790 0.113366 5.820954 2.058658 0.149734 7.300839 2.584000 0.093135 5.841286 2.063280 -2.794473 20.309612 -1.128655 -2.723577 -4.151354 -0.565986 -0.256800 2.137278 -2.489555 -14.146249 -4.023519 7.479668 25.924834 -72.949314 -9.440299 10.248767 -8.324872 -20.651261 -8.648748 2.099463 -3.253041 3.741948 1.033875 -0.887577 -70.232977 -75.151273 73.069393 10.943022 -13.828184 0.666479 -19.455604 -38.005271 9.014523 29.825121 83.843214 25.954239 0.666158 -16.062892 1.125082 -0.808991 2.109326 -0.369451 -18.477164 -49.339316 19.939589 171.516925 79.352808 167.228245 -1.199107 -16.468027 0.827725 -0.941413 -1.881353 -0.419220
-5.865891 55.208659 30.808910 178.206357 -28.126514 -11.342295 0.213595 9.917750 5.938607 0.129539 5.813803 2.063311 0.143108 7.306598 2.587215 0.142782 5.813977 2.063900 -3.019406 20.408208 -1.091814 -2.974957 -4.031153 -0.476223 -0.293076 2.138459 -2.489732 -14.220799 -3.947495 7.535538 26.015999 -73.005077 -9.596059 10.257816 -8.335458 -20.582760 -8.677258 2.073728 -3.262690 3.597944 1.050605 -0.860334 -70.222254 -75.074716 72.996711 10.916309 -13.834582 0.520134 -19.454467 -38.003577 9.021261 29.792065 83.841330 25.926248 0.666895 -16.057592 1.116175 -0.804662 2.105111 -0.365947 -18.469048 -49.342726 19.946579 171.580054 79.349120 167.293953 -1.195587 -16.475227 0.827834 -0.935653 -1.876924 -0.416848
-5.864545 55.207373 30.808991 178.189514 -28.134087 -11.341474 0.246846 9.902423 5.944801 0.148993 5.805874 2.069067 0.136704 7.311418 2.589294 0.191037 5.788294 2.067513 -3.249244 20.503023 -1.064443 -3.230050 -3.914228 -0.395338 -0.329280 2.141468 -2.490975 -14.300512 -3.884128 7.583789 26.085265 -73.031751 -9.676898 10.244287 -8.341028 -20.536941 -8.703223 2.055408 -3.277851 3.451264 1.055504 -0.839525 -70.073112 -75.022099 72.873388 10.858436 -13.863185 0.297561 -19.457150 -37.992636 9.031457 29.807284 83.835183 25.936767 0.677971 -16.062550 1.112341 -0.812631 2.112880 -0.371321 -18.457352 -49.337381 19.956091 171.616878 79.345424 167.330809 -1.195595 -16.486226 0.827830 -0.932862 -1.870707 -0.415314
-5.860398 55.206424 30.810610 178.165316 -28.140380 -11.352869 0.309321 9.871802 5.970492 0.147480 5.811246 2.075115 0.202852 7.272669 2.598407 0.162519 5.802167 2.074353 -3.483117 20.594332 -1.045761 -3.488048 -3.800278 -0.322726 -0.363593 2.149073 -2.488536 -14.382715 -3.839912 7.619579 26.164663 -73.036736 -9.741246 10.196500 -8.351264 -20.501956 -8.725709 2.045028 -3.297063 3.304000 1.049516 -0.823176 -70.194269 -74.895129 72.932761 10.855847 -13.876814 0.188850 -19.481496 -37.971854 9.067836 29.847240 83.816441 25.965933 0.689336 -16.079748 1.097936 -0.821686 2.135998 -0.373771 -18.459076 -49.328774 19.990616 171.658488 79.340623 167.376213 -1.194697 -16.502753 0.823432 -0.935478 -1.859972 -0.414987
-5.858043 55.204690 30.814016 178.152419 -28.135717 -11.357633 0.341705 9.855328 5.982086 0.162672 5.802856 2.079585 0.236793 7.252351 2.605466 0.162649 5.802863 2.079620 -3.720451 20.679515 -1.033827 -3.748784 -3.692381 -0.256507 -0.392571 2.156476 -2.481405 -14.453585 -3.815379 7.636767 26.168069 -73.043721 -9.738591 10.149513 -8.360405 -20.464765 -8.741200 2.035318 -3.316534 3.157034 1.034378 -0.813719 -70.332251 -74.758787 73.031709 10.854356 -13.907149 0.096308 -19.489158 -37.973636 9.085858 29.841884 83.810402 25.963217 0.695330 -16.085854 1.090544 -0.822082 2.145785 -0.375393 -18.464140 -49.334974 20.013287 171.686071 79.338520 167.402913 -1.190647 -16.512111 0.824113 -0.939094 -1.850814 -0.416054
-5.855692 55.203487 30.817711 178.144395 -28.132615 -11.363781 0.364618 9.846387 5.992729 0.179570 5.795887 2.083469 0.253130 7.245642 2.610908 0.147760 5.804995 2.082483 -3.932830 20.753417 -1.026650 -4.012257 -3.589020 -0.193604 -0.387317 2.155751 -2.474019 -14.500920 -3.804228 7.636686 25.896941 -73.100933 -9.528204 10.178078 -8.347706 -20.389131 -8.718860 2.017170 -3.336451 3.015835 1.013342 -0.815032 -70.447610 -74.638653 73.131544 10.828472 -13.964595 0.021391 -19.499403 -37.974777 9.102809 29.847725 83.805868 25.971543 0.698598 -16.088798 1.081873 -0.821370 2.149330 -0.374352 -18.462926 -49.340461 20.030593 171.704983 79.337598 167.424003 -1.192295 -16.520657 0.827557 -0.940660 -1.841326 -0.416421
-5.849755 55.203239 30.822590 178.105603 -28.133991 -11.376974 0.408678 9.839507 6.025024 0.195896 5.789539 2.085697 0.253920 7.245536 2.613507 0.156394 5.804447 2.084499 -4.154297 20.822964 -1.020270 -4.278107 -3.483692 -0.132416 -0.382877 2.156004 -2.467262 -14.553394 -3.810624 7.649724 25.891981 -73.094359 -9.521928 10.160701 -8.359356 -20.374750 -8.695493 2.000384 -3.357625 2.903153 1.000978 -0.815338 -70.468372 -74.564383 73.165474 10.764592 -14.063411 -0.063300 -19.506493 -37.968538 9.147099 29.856358 83.802724 25.981111 0.734676 -16.109040 1.072759 -0.848787 2.171829 -0.386442 -18.459515 -49.340955 20.078269 171.689951 79.334306 167.412585 -1.164518 -16.513678 0.833847 -0.973730 -1.848425 -0.430685
-5.847468 55.203455 30.826124 178.098219 -28.139440 -11.382158 0.432788 9.835322 6.035250 0.186867 5.793422 2.087484 0.267134 7.240275 2.615657 0.226318 5.768742 2.089876 -4.446497 20.925151 -1.015201 -4.546561 -3.374238 -0.072868 -0.456499 2.193863 -2.461116 -14.573790 -3.869637 7.652269 25.776237 -73.051237 -9.420462 10.162594 -8.357553 -20.362689 -8.735818 2.020769 -3.383931 2.800199 0.983282 -0.836815 -70.751217 -74.409513 73.429162 10.775595 -14.128681 -0.082922 -19.530109 -37.960774 9.162396 29.903954 83.796247 26.024093 0.747442 -16.109068 1.060988 -0.854008 2.176505 -0.390826 -18.452856 -49.339850 20.086020 171.658587 79.330699 167.386452 -1.168716 -16.513088 0.834788 -0.977976 -1.848324 -0.431775
